STARTFONT 2.1
COMMENT  
COMMENT  2002 - Iconian Fonts: www.iconian.com
COMMENT  
COMMENT  WARNING:  This bdf file was generated from a font server using
COMMENT  fstobdf.  The resulting font is subject to the same copyright,
COMMENT  license, and trademark restrictions as the original font.  The
COMMENT  authors and distributors of fstobdf disclaim all liability for
COMMENT  misuse of the program or its output.
COMMENT  
FONT -bitstream-radio space-medium-r-normal--18-173-75-75-p-111-iso8859-1
SIZE 17 75 75
FONTBOUNDINGBOX 21 22 -1 -5
STARTPROPERTIES 37
FONT "-bitstream-radio space-medium-r-normal--18-173-75-75-p-111-iso8859-1"
FOUNDRY "bitstream"
FAMILY_NAME "radio space"
WEIGHT_NAME "medium"
SLANT "r"
SETWIDTH_NAME "normal"
ADD_STYLE_NAME ""
PIXEL_SIZE 18
POINT_SIZE 173
RESOLUTION_X 75
RESOLUTION_Y 75
SPACING "p"
AVERAGE_WIDTH 111
CHARSET_REGISTRY "iso8859"
CHARSET_ENCODING "1"
RAW_PIXEL_SIZE 1000
RAW_POINT_SIZE 964
RAW_AVERAGE_WIDTH 13042
FONT_ASCENT 17
RAW_ASCENT 903
FONT_DESCENT 5
RAW_DESCENT 270
COPYRIGHT "2002 - Iconian Fonts: www.iconian.com"
FACE_NAME "Radio Space"
_ADOBE_POSTSCRIPT_FONTNAME "RadioSpace"
SUBSCRIPT_SIZE 11
SUBSCRIPT_X 0
SUBSCRIPT_Y -3
SUPERSCRIPT_SIZE 11
SUPERSCRIPT_X 0
SUPERSCRIPT_Y 4
UNDERLINE_THICKNESS 1
UNDERLINE_POSITION 1
ITALIC_ANGLE 5760
FONT_TYPE "TrueType"
RASTERIZER_NAME "FreeType"
DEFAULT_CHAR 0
ENDPROPERTIES
CHARS 191
STARTCHAR space
ENCODING 32
SWIDTH 338 0
DWIDTH 6 0
BBX 0 0 0 0
ATTRIBUTES 1770
BITMAP
ENDCHAR
STARTCHAR exclam
ENCODING 33
SWIDTH 282 0
DWIDTH 5 0
BBX 2 12 2 0
ATTRIBUTES 1388
BITMAP
c0
c0
c0
c0
c0
c0
c0
00
00
00
c0
c0
ENDCHAR
STARTCHAR quotedbl
ENCODING 34
SWIDTH 395 0
DWIDTH 7 0
BBX 5 4 1 8
ATTRIBUTES 1b58
BITMAP
d8
d8
48
48
ENDCHAR
STARTCHAR numbersign
ENCODING 35
SWIDTH 790 0
DWIDTH 14 0
BBX 11 12 2 0
ATTRIBUTES 36b0
BITMAP
3180
3180
3180
ffe0
ffe0
0180
0180
ffe0
ffe0
3180
3180
3180
ENDCHAR
STARTCHAR dollar
ENCODING 36
SWIDTH 734 0
DWIDTH 13 0
BBX 10 12 2 0
ATTRIBUTES 32c8
BITMAP
7fc0
ffc0
cc00
cc00
cc00
ff80
7fc0
0cc0
0cc0
0cc0
ffc0
ff80
ENDCHAR
STARTCHAR percent
ENCODING 37
SWIDTH 960 0
DWIDTH 17 0
BBX 14 12 2 0
ATTRIBUTES 4268
BITMAP
f830
8860
8860
88c0
8980
897c
fb44
0644
0444
0c44
187c
107c
ENDCHAR
STARTCHAR ampersand
ENCODING 38
SWIDTH 677 0
DWIDTH 12 0
BBX 10 12 1 0
ATTRIBUTES 2ee0
BITMAP
0c00
0c00
0c00
0c00
0c00
ffc0
ffc0
ffc0
0cc0
0cc0
0fc0
0fc0
ENDCHAR
STARTCHAR apostrophe
ENCODING 39
SWIDTH 225 0
DWIDTH 4 0
BBX 2 4 1 8
ATTRIBUTES 0fa0
BITMAP
c0
c0
40
40
ENDCHAR
STARTCHAR parenleft
ENCODING 40
SWIDTH 395 0
DWIDTH 7 0
BBX 5 12 1 0
ATTRIBUTES 1b58
BITMAP
78
f8
c0
c0
c0
c0
c0
c0
c0
c0
f8
78
ENDCHAR
STARTCHAR parenright
ENCODING 41
SWIDTH 451 0
DWIDTH 8 0
BBX 5 12 2 0
ATTRIBUTES 1f40
BITMAP
f0
f8
18
18
18
18
18
18
18
18
f8
f0
ENDCHAR
STARTCHAR asterisk
ENCODING 42
SWIDTH 508 0
DWIDTH 9 0
BBX 6 7 2 5
ATTRIBUTES 2328
BITMAP
20
20
ac
fc
30
58
c8
ENDCHAR
STARTCHAR plus
ENCODING 43
SWIDTH 564 0
DWIDTH 10 0
BBX 7 7 2 3
ATTRIBUTES 2710
BITMAP
30
30
30
fe
fe
30
30
ENDCHAR
STARTCHAR comma
ENCODING 44
SWIDTH 225 0
DWIDTH 4 0
BBX 2 5 1 -3
ATTRIBUTES 0fa0
BITMAP
c0
c0
40
40
00
ENDCHAR
STARTCHAR minus
ENCODING 45
SWIDTH 564 0
DWIDTH 10 0
BBX 7 2 2 5
ATTRIBUTES 2710
BITMAP
fe
fe
ENDCHAR
STARTCHAR period
ENCODING 46
SWIDTH 225 0
DWIDTH 4 0
BBX 2 2 1 0
ATTRIBUTES 0fa0
BITMAP
c0
c0
ENDCHAR
STARTCHAR slash
ENCODING 47
SWIDTH 677 0
DWIDTH 12 0
BBX 9 12 2 0
ATTRIBUTES 2ee0
BITMAP
0180
0100
0300
0600
0400
0c00
1800
1000
3000
6000
c000
c000
ENDCHAR
STARTCHAR 0
ENCODING 48
SWIDTH 677 0
DWIDTH 12 0
BBX 10 12 1 0
ATTRIBUTES 2ee0
BITMAP
7f80
ffc0
c0c0
c0c0
c0c0
c0c0
c0c0
c0c0
c0c0
c0c0
ffc0
7f80
ENDCHAR
STARTCHAR 1
ENCODING 49
SWIDTH 282 0
DWIDTH 5 0
BBX 2 12 2 0
ATTRIBUTES 1388
BITMAP
c0
c0
c0
c0
c0
c0
c0
c0
c0
c0
c0
c0
ENDCHAR
STARTCHAR 2
ENCODING 50
SWIDTH 734 0
DWIDTH 13 0
BBX 10 12 2 0
ATTRIBUTES 32c8
BITMAP
ff80
ffc0
00c0
00c0
00c0
7fc0
ff80
c000
c000
c000
ffc0
ffc0
ENDCHAR
STARTCHAR 3
ENCODING 51
SWIDTH 734 0
DWIDTH 13 0
BBX 10 12 2 0
ATTRIBUTES 32c8
BITMAP
ff80
ffc0
00c0
00c0
00c0
ffc0
ffc0
00c0
00c0
00c0
ffc0
ff80
ENDCHAR
STARTCHAR 4
ENCODING 52
SWIDTH 734 0
DWIDTH 13 0
BBX 10 12 2 0
ATTRIBUTES 32c8
BITMAP
c0c0
c0c0
c0c0
c0c0
c0c0
ffc0
7fc0
00c0
00c0
00c0
00c0
00c0
ENDCHAR
STARTCHAR 5
ENCODING 53
SWIDTH 734 0
DWIDTH 13 0
BBX 10 12 2 0
ATTRIBUTES 32c8
BITMAP
ffc0
ffc0
c000
c000
c000
ff80
7fc0
00c0
00c0
00c0
ffc0
ff80
ENDCHAR
STARTCHAR 6
ENCODING 54
SWIDTH 734 0
DWIDTH 13 0
BBX 10 12 2 0
ATTRIBUTES 32c8
BITMAP
7fc0
ffc0
c000
c000
c000
ff80
ffc0
c0c0
c0c0
c0c0
ffc0
7f80
ENDCHAR
STARTCHAR 7
ENCODING 55
SWIDTH 734 0
DWIDTH 13 0
BBX 10 12 2 0
ATTRIBUTES 32c8
BITMAP
ff80
ffc0
00c0
00c0
00c0
00c0
00c0
00c0
00c0
00c0
00c0
00c0
ENDCHAR
STARTCHAR 8
ENCODING 56
SWIDTH 734 0
DWIDTH 13 0
BBX 10 12 2 0
ATTRIBUTES 32c8
BITMAP
7f80
ffc0
c0c0
c0c0
c0c0
ffc0
ffc0
c0c0
c0c0
c0c0
ffc0
7f80
ENDCHAR
STARTCHAR 9
ENCODING 57
SWIDTH 734 0
DWIDTH 13 0
BBX 10 12 2 0
ATTRIBUTES 32c8
BITMAP
7f80
ffc0
c0c0
c0c0
c0c0
ffc0
7fc0
00c0
00c0
00c0
ffc0
ff80
ENDCHAR
STARTCHAR colon
ENCODING 58
SWIDTH 225 0
DWIDTH 4 0
BBX 2 6 1 0
ATTRIBUTES 0fa0
BITMAP
c0
c0
00
00
c0
c0
ENDCHAR
STARTCHAR semicolon
ENCODING 59
SWIDTH 225 0
DWIDTH 4 0
BBX 2 9 1 -3
ATTRIBUTES 0fa0
BITMAP
c0
c0
00
00
c0
c0
40
40
00
ENDCHAR
STARTCHAR less
ENCODING 60
SWIDTH 395 0
DWIDTH 7 0
BBX 5 12 1 0
ATTRIBUTES 1b58
BITMAP
78
f8
c0
c0
c0
c0
c0
c0
c0
c0
f8
78
ENDCHAR
STARTCHAR equal
ENCODING 61
SWIDTH 564 0
DWIDTH 10 0
BBX 7 6 2 3
ATTRIBUTES 2710
BITMAP
fe
fe
00
00
fe
fe
ENDCHAR
STARTCHAR greater
ENCODING 62
SWIDTH 451 0
DWIDTH 8 0
BBX 5 12 2 0
ATTRIBUTES 1f40
BITMAP
f0
f8
18
18
18
18
18
18
18
18
f8
f0
ENDCHAR
STARTCHAR question
ENCODING 63
SWIDTH 734 0
DWIDTH 13 0
BBX 10 12 2 0
ATTRIBUTES 32c8
BITMAP
ff80
ffc0
00c0
00c0
00c0
7fc0
ff80
c000
0000
0000
c000
c000
ENDCHAR
STARTCHAR at
ENCODING 64
SWIDTH 734 0
DWIDTH 13 0
BBX 11 11 1 1
ATTRIBUTES 32c8
BITMAP
7fc0
ffe0
c060
ffe0
ffe0
e0e0
fee0
fee0
c060
ffe0
7fc0
ENDCHAR
STARTCHAR A
ENCODING 65
SWIDTH 734 0
DWIDTH 13 0
BBX 10 12 2 0
ATTRIBUTES 32c8
BITMAP
7f80
ffc0
00c0
00c0
00c0
ffc0
ffc0
c0c0
c0c0
c0c0
c0c0
c0c0
ENDCHAR
STARTCHAR B
ENCODING 66
SWIDTH 734 0
DWIDTH 13 0
BBX 10 12 2 0
ATTRIBUTES 32c8
BITMAP
ff80
ffc0
00c0
00c0
00c0
ffc0
ffc0
c0c0
c0c0
c0c0
ffc0
ff80
ENDCHAR
STARTCHAR C
ENCODING 67
SWIDTH 677 0
DWIDTH 12 0
BBX 10 12 1 0
ATTRIBUTES 2ee0
BITMAP
7fc0
ffc0
c000
c000
c000
c000
c000
c000
c000
c000
ffc0
7fc0
ENDCHAR
STARTCHAR D
ENCODING 68
SWIDTH 677 0
DWIDTH 12 0
BBX 10 12 1 0
ATTRIBUTES 2ee0
BITMAP
ff80
ffc0
c0c0
c0c0
c0c0
c0c0
c0c0
c0c0
c0c0
c0c0
dfc0
df80
ENDCHAR
STARTCHAR E
ENCODING 69
SWIDTH 734 0
DWIDTH 13 0
BBX 10 12 2 0
ATTRIBUTES 32c8
BITMAP
7fc0
ffc0
c000
c000
c000
ffc0
ffc0
c000
c000
c000
ffc0
7fc0
ENDCHAR
STARTCHAR F
ENCODING 70
SWIDTH 734 0
DWIDTH 13 0
BBX 10 12 2 0
ATTRIBUTES 32c8
BITMAP
7fc0
ffc0
c000
c000
c000
ffc0
ffc0
c000
c000
c000
c000
c000
ENDCHAR
STARTCHAR G
ENCODING 71
SWIDTH 677 0
DWIDTH 12 0
BBX 10 12 1 0
ATTRIBUTES 2ee0
BITMAP
7fc0
ffc0
c000
c000
c000
c000
c0c0
c0c0
c0c0
c0c0
ffc0
7f80
ENDCHAR
STARTCHAR H
ENCODING 72
SWIDTH 734 0
DWIDTH 13 0
BBX 10 12 2 0
ATTRIBUTES 32c8
BITMAP
c0c0
c0c0
c0c0
c0c0
c0c0
ffc0
ffc0
c0c0
c0c0
c0c0
c0c0
c0c0
ENDCHAR
STARTCHAR I
ENCODING 73
SWIDTH 282 0
DWIDTH 5 0
BBX 2 12 2 0
ATTRIBUTES 1388
BITMAP
c0
c0
c0
c0
c0
c0
c0
c0
c0
c0
c0
c0
ENDCHAR
STARTCHAR J
ENCODING 74
SWIDTH 734 0
DWIDTH 13 0
BBX 10 12 2 0
ATTRIBUTES 32c8
BITMAP
00c0
00c0
00c0
00c0
00c0
00c0
00c0
00c0
00c0
00c0
ffc0
ff80
ENDCHAR
STARTCHAR K
ENCODING 75
SWIDTH 734 0
DWIDTH 13 0
BBX 10 12 2 0
ATTRIBUTES 32c8
BITMAP
c3c0
c7c0
c600
c600
c600
ff80
ffc0
c0c0
c0c0
c0c0
c0c0
c0c0
ENDCHAR
STARTCHAR L
ENCODING 76
SWIDTH 677 0
DWIDTH 12 0
BBX 10 12 1 0
ATTRIBUTES 2ee0
BITMAP
c000
c000
c000
c000
c000
c000
c000
c000
c000
c000
ffc0
7fc0
ENDCHAR
STARTCHAR M
ENCODING 77
SWIDTH 790 0
DWIDTH 14 0
BBX 11 12 2 0
ATTRIBUTES 36b0
BITMAP
7fc0
ffe0
c060
cc60
cc60
cc60
cc60
cc60
cc60
cc60
cc60
cc60
ENDCHAR
STARTCHAR N
ENCODING 78
SWIDTH 677 0
DWIDTH 12 0
BBX 10 12 1 0
ATTRIBUTES 2ee0
BITMAP
7f80
ffc0
c0c0
c0c0
c0c0
c0c0
c0c0
c0c0
c0c0
c0c0
c0c0
c0c0
ENDCHAR
STARTCHAR O
ENCODING 79
SWIDTH 677 0
DWIDTH 12 0
BBX 10 12 1 0
ATTRIBUTES 2ee0
BITMAP
7f80
ffc0
c0c0
c0c0
c0c0
c0c0
c0c0
c0c0
c0c0
c0c0
ffc0
7f80
ENDCHAR
STARTCHAR P
ENCODING 80
SWIDTH 734 0
DWIDTH 13 0
BBX 10 12 2 0
ATTRIBUTES 32c8
BITMAP
ff80
ffc0
00c0
00c0
00c0
ffc0
ff80
c000
c000
c000
c000
c000
ENDCHAR
STARTCHAR Q
ENCODING 81
SWIDTH 677 0
DWIDTH 12 0
BBX 10 12 1 0
ATTRIBUTES 2ee0
BITMAP
7f80
ffc0
c0c0
c0c0
c0c0
c0c0
ccc0
ccc0
ccc0
ccc0
cfc0
c780
ENDCHAR
STARTCHAR R
ENCODING 82
SWIDTH 734 0
DWIDTH 13 0
BBX 10 12 2 0
ATTRIBUTES 32c8
BITMAP
ff80
ffc0
00c0
00c0
00c0
ffc0
ff80
c600
c600
c600
c7c0
c3c0
ENDCHAR
STARTCHAR S
ENCODING 83
SWIDTH 734 0
DWIDTH 13 0
BBX 10 12 2 0
ATTRIBUTES 32c8
BITMAP
7fc0
ffc0
c000
c000
c000
ff80
7fc0
00c0
00c0
00c0
ffc0
ff80
ENDCHAR
STARTCHAR T
ENCODING 84
SWIDTH 677 0
DWIDTH 12 0
BBX 10 12 1 0
ATTRIBUTES 2ee0
BITMAP
ffc0
ffc0
0000
0c00
0c00
0c00
0c00
0c00
0c00
0c00
0c00
0c00
ENDCHAR
STARTCHAR U
ENCODING 85
SWIDTH 677 0
DWIDTH 12 0
BBX 10 12 1 0
ATTRIBUTES 2ee0
BITMAP
c0c0
c0c0
c0c0
c0c0
c0c0
c0c0
c0c0
c0c0
c0c0
c0c0
ffc0
7f80
ENDCHAR
STARTCHAR V
ENCODING 86
SWIDTH 677 0
DWIDTH 12 0
BBX 10 12 1 0
ATTRIBUTES 2ee0
BITMAP
c0c0
c0c0
c0c0
c080
6180
6180
2300
3300
1200
1e00
1c00
0c00
ENDCHAR
STARTCHAR W
ENCODING 87
SWIDTH 790 0
DWIDTH 14 0
BBX 11 12 2 0
ATTRIBUTES 36b0
BITMAP
cc60
cc60
cc60
cc60
cc60
cc60
cc60
cc60
cc60
c060
ffe0
7fc0
ENDCHAR
STARTCHAR X
ENCODING 88
SWIDTH 790 0
DWIDTH 14 0
BBX 11 12 2 0
ATTRIBUTES 36b0
BITMAP
f1e0
fbe0
1b00
1b00
1b00
1b00
1b00
1b00
1b00
1b00
fbe0
f1e0
ENDCHAR
STARTCHAR Y
ENCODING 89
SWIDTH 734 0
DWIDTH 13 0
BBX 10 12 2 0
ATTRIBUTES 32c8
BITMAP
c0c0
c0c0
c0c0
c0c0
c0c0
ffc0
7fc0
00c0
00c0
00c0
ffc0
ff80
ENDCHAR
STARTCHAR Z
ENCODING 90
SWIDTH 734 0
DWIDTH 13 0
BBX 10 12 2 0
ATTRIBUTES 32c8
BITMAP
ffc0
ffc0
01c0
0380
0700
0e00
1c00
3800
7000
e000
ffc0
ffc0
ENDCHAR
STARTCHAR bracketleft
ENCODING 91
SWIDTH 395 0
DWIDTH 7 0
BBX 5 12 1 0
ATTRIBUTES 1b58
BITMAP
78
f8
c0
c0
c0
c0
c0
c0
c0
c0
f8
78
ENDCHAR
STARTCHAR backslash
ENCODING 92
SWIDTH 677 0
DWIDTH 12 0
BBX 9 12 2 0
ATTRIBUTES 2ee0
BITMAP
c000
4000
6000
3000
1000
1800
0c00
0400
0600
0300
0100
0180
ENDCHAR
STARTCHAR bracketright
ENCODING 93
SWIDTH 451 0
DWIDTH 8 0
BBX 5 12 2 0
ATTRIBUTES 1f40
BITMAP
f0
f8
18
18
18
18
18
18
18
18
f8
f0
ENDCHAR
STARTCHAR asciicircum
ENCODING 94
SWIDTH 395 0
DWIDTH 7 0
BBX 0 0 0 0
ATTRIBUTES 1b58
BITMAP
ENDCHAR
STARTCHAR underscore
ENCODING 95
SWIDTH 564 0
DWIDTH 10 0
BBX 10 2 0 -3
ATTRIBUTES 2710
BITMAP
ffc0
ffc0
ENDCHAR
STARTCHAR grave
ENCODING 96
SWIDTH 282 0
DWIDTH 5 0
BBX 3 4 1 8
ATTRIBUTES 1388
BITMAP
c0
c0
40
20
ENDCHAR
STARTCHAR a
ENCODING 97
SWIDTH 734 0
DWIDTH 13 0
BBX 10 7 2 0
ATTRIBUTES 32c8
BITMAP
7fc0
ffc0
c0c0
c0c0
c0c0
fcc0
7cc0
ENDCHAR
STARTCHAR b
ENCODING 98
SWIDTH 734 0
DWIDTH 13 0
BBX 10 12 2 0
ATTRIBUTES 32c8
BITMAP
c000
c000
c000
c000
c000
ff80
ffc0
00c0
00c0
00c0
ffc0
ff80
ENDCHAR
STARTCHAR c
ENCODING 99
SWIDTH 734 0
DWIDTH 13 0
BBX 10 7 2 0
ATTRIBUTES 32c8
BITMAP
7fc0
ffc0
c000
c000
c000
ffc0
7fc0
ENDCHAR
STARTCHAR d
ENCODING 100
SWIDTH 734 0
DWIDTH 13 0
BBX 10 12 2 0
ATTRIBUTES 32c8
BITMAP
00c0
00c0
00c0
00c0
00c0
7fc0
ffc0
c000
c000
c000
ffc0
7fc0
ENDCHAR
STARTCHAR e
ENCODING 101
SWIDTH 734 0
DWIDTH 13 0
BBX 10 7 2 0
ATTRIBUTES 32c8
BITMAP
7f80
ffc0
c380
ce00
c000
ffc0
7fc0
ENDCHAR
STARTCHAR f
ENCODING 102
SWIDTH 734 0
DWIDTH 13 0
BBX 10 12 2 -5
ATTRIBUTES 32c8
BITMAP
7fc0
ffc0
0000
0000
0000
ffc0
ffc0
c000
c000
c000
c000
c000
ENDCHAR
STARTCHAR g
ENCODING 103
SWIDTH 734 0
DWIDTH 13 0
BBX 10 12 2 -5
ATTRIBUTES 32c8
BITMAP
7fc0
ffc0
c000
c000
c000
ffc0
7fc0
00c0
00c0
00c0
00c0
00c0
ENDCHAR
STARTCHAR h
ENCODING 104
SWIDTH 734 0
DWIDTH 13 0
BBX 10 12 2 0
ATTRIBUTES 32c8
BITMAP
c000
c000
c000
c000
c000
ff80
ffc0
c0c0
c0c0
c0c0
c0c0
c0c0
ENDCHAR
STARTCHAR i
ENCODING 105
SWIDTH 282 0
DWIDTH 5 0
BBX 2 12 2 0
ATTRIBUTES 1388
BITMAP
c0
c0
00
00
00
c0
c0
c0
c0
c0
c0
c0
ENDCHAR
STARTCHAR j
ENCODING 106
SWIDTH 282 0
DWIDTH 5 0
BBX 5 17 -1 -5
ATTRIBUTES 1388
BITMAP
18
18
00
00
00
18
18
18
18
18
18
18
18
18
18
f8
f0
ENDCHAR
STARTCHAR k
ENCODING 107
SWIDTH 734 0
DWIDTH 13 0
BBX 10 12 2 0
ATTRIBUTES 32c8
BITMAP
c000
c000
c600
c600
c600
ff80
ffc0
c0c0
c0c0
c0c0
c0c0
c0c0
ENDCHAR
STARTCHAR l
ENCODING 108
SWIDTH 282 0
DWIDTH 5 0
BBX 2 12 2 0
ATTRIBUTES 1388
BITMAP
c0
c0
c0
c0
c0
c0
c0
c0
c0
c0
c0
c0
ENDCHAR
STARTCHAR m
ENCODING 109
SWIDTH 790 0
DWIDTH 14 0
BBX 11 7 2 0
ATTRIBUTES 36b0
BITMAP
7fc0
ffe0
c060
cc60
cc60
cc60
cc60
ENDCHAR
STARTCHAR n
ENCODING 110
SWIDTH 734 0
DWIDTH 13 0
BBX 10 7 2 0
ATTRIBUTES 32c8
BITMAP
7f80
ffc0
c0c0
c0c0
c0c0
c0c0
c0c0
ENDCHAR
STARTCHAR o
ENCODING 111
SWIDTH 734 0
DWIDTH 13 0
BBX 10 7 2 0
ATTRIBUTES 32c8
BITMAP
7f80
ffc0
c0c0
c0c0
c0c0
ffc0
7f80
ENDCHAR
STARTCHAR p
ENCODING 112
SWIDTH 734 0
DWIDTH 13 0
BBX 10 12 2 -5
ATTRIBUTES 32c8
BITMAP
ff80
ffc0
00c0
00c0
00c0
ffc0
ff80
c000
c000
c000
c000
c000
ENDCHAR
STARTCHAR q
ENCODING 113
SWIDTH 734 0
DWIDTH 13 0
BBX 12 12 2 -5
ATTRIBUTES 32c8
BITMAP
7fc0
ffc0
c000
c000
c000
ffc0
7fc0
00c0
00c0
00c0
00f0
00f0
ENDCHAR
STARTCHAR r
ENCODING 114
SWIDTH 734 0
DWIDTH 13 0
BBX 10 7 2 0
ATTRIBUTES 32c8
BITMAP
7fc0
ffc0
c000
c000
c000
c000
c000
ENDCHAR
STARTCHAR s
ENCODING 115
SWIDTH 734 0
DWIDTH 13 0
BBX 10 7 2 0
ATTRIBUTES 32c8
BITMAP
7fc0
ffc0
7800
1e00
0780
ffc0
ff80
ENDCHAR
STARTCHAR t
ENCODING 116
SWIDTH 677 0
DWIDTH 12 0
BBX 10 12 1 0
ATTRIBUTES 2ee0
BITMAP
c000
c000
c000
c000
c000
ffc0
ffc0
c000
c000
c000
ffc0
7fc0
ENDCHAR
STARTCHAR u
ENCODING 117
SWIDTH 734 0
DWIDTH 13 0
BBX 10 7 2 0
ATTRIBUTES 32c8
BITMAP
c0c0
c0c0
c0c0
c0c0
c0c0
ffc0
7f80
ENDCHAR
STARTCHAR v
ENCODING 118
SWIDTH 734 0
DWIDTH 13 0
BBX 10 7 2 0
ATTRIBUTES 32c8
BITMAP
c0c0
c0c0
c0c0
6180
3300
1e00
0c00
ENDCHAR
STARTCHAR w
ENCODING 119
SWIDTH 790 0
DWIDTH 14 0
BBX 11 7 2 0
ATTRIBUTES 36b0
BITMAP
cc60
cc60
cc60
cc60
c060
ffe0
7fc0
ENDCHAR
STARTCHAR x
ENCODING 120
SWIDTH 734 0
DWIDTH 13 0
BBX 10 7 2 0
ATTRIBUTES 32c8
BITMAP
c0c0
e1c0
7980
1e00
6780
e1c0
c0c0
ENDCHAR
STARTCHAR y
ENCODING 121
SWIDTH 734 0
DWIDTH 13 0
BBX 10 12 2 -5
ATTRIBUTES 32c8
BITMAP
c0c0
c0c0
c0c0
c0c0
c0c0
ffc0
7fc0
00c0
00c0
00c0
00c0
00c0
ENDCHAR
STARTCHAR z
ENCODING 122
SWIDTH 734 0
DWIDTH 13 0
BBX 10 7 2 0
ATTRIBUTES 32c8
BITMAP
ffc0
ffc0
0780
1e00
7800
ffc0
ffc0
ENDCHAR
STARTCHAR braceleft
ENCODING 123
SWIDTH 395 0
DWIDTH 7 0
BBX 5 12 1 0
ATTRIBUTES 1b58
BITMAP
78
f8
c0
c0
c0
c0
c0
c0
c0
c0
f8
78
ENDCHAR
STARTCHAR bar
ENCODING 124
SWIDTH 225 0
DWIDTH 4 0
BBX 2 12 1 0
ATTRIBUTES 0fa0
BITMAP
c0
c0
c0
c0
c0
c0
c0
c0
c0
c0
c0
c0
ENDCHAR
STARTCHAR braceright
ENCODING 125
SWIDTH 451 0
DWIDTH 8 0
BBX 5 12 2 0
ATTRIBUTES 1f40
BITMAP
f0
f8
18
18
18
18
18
18
18
18
f8
f0
ENDCHAR
STARTCHAR asciitilde
ENCODING 126
SWIDTH 508 0
DWIDTH 9 0
BBX 6 4 2 3
ATTRIBUTES 2328
BITMAP
0c
3c
f8
c0
ENDCHAR
STARTCHAR nobreakspace
ENCODING 160
SWIDTH 790 0
DWIDTH 14 0
BBX 0 0 0 0
ATTRIBUTES 36b0
BITMAP
ENDCHAR
STARTCHAR exclamdown
ENCODING 161
SWIDTH 282 0
DWIDTH 5 0
BBX 2 12 2 0
ATTRIBUTES 1388
BITMAP
c0
c0
00
00
00
c0
c0
c0
c0
c0
c0
c0
ENDCHAR
STARTCHAR cent
ENCODING 162
SWIDTH 677 0
DWIDTH 12 0
BBX 10 12 1 0
ATTRIBUTES 2ee0
BITMAP
0c00
0c00
7fc0
ffc0
cc00
cc00
cc00
cc00
ffc0
7fc0
0c00
0c00
ENDCHAR
STARTCHAR sterling
ENCODING 163
SWIDTH 621 0
DWIDTH 11 0
BBX 9 17 1 -3
ATTRIBUTES 2af8
BITMAP
ff80
8080
8080
8080
8080
8080
8080
8080
8080
8080
8080
8080
8080
8080
8080
8080
ff80
ENDCHAR
STARTCHAR currency
ENCODING 164
SWIDTH 734 0
DWIDTH 13 0
BBX 10 10 2 1
ATTRIBUTES 32c8
BITMAP
c080
df80
7f80
6380
6180
6180
6380
7f80
df80
c080
ENDCHAR
STARTCHAR yen
ENCODING 165
SWIDTH 847 0
DWIDTH 15 0
BBX 12 12 2 0
ATTRIBUTES 3a98
BITMAP
c0c0
c0c0
c7f0
c7f0
c0c0
ffc0
7fc0
07f0
07f0
00c0
ffc0
ff80
ENDCHAR
STARTCHAR brokenbar
ENCODING 166
SWIDTH 564 0
DWIDTH 10 0
BBX 2 17 4 -3
ATTRIBUTES 2710
BITMAP
c0
c0
c0
c0
c0
c0
c0
00
00
00
c0
c0
c0
c0
c0
c0
c0
ENDCHAR
STARTCHAR section
ENCODING 167
SWIDTH 677 0
DWIDTH 12 0
BBX 10 12 1 0
ATTRIBUTES 2ee0
BITMAP
7fc0
ffc0
ff80
ffc0
c0c0
c0c0
c0c0
ffc0
7fc0
00c0
ffc0
ff80
ENDCHAR
STARTCHAR diaeresis
ENCODING 168
SWIDTH 395 0
DWIDTH 7 0
BBX 5 2 1 13
ATTRIBUTES 1b58
BITMAP
d8
d8
ENDCHAR
STARTCHAR copyright
ENCODING 169
SWIDTH 734 0
DWIDTH 13 0
BBX 11 11 1 1
ATTRIBUTES 32c8
BITMAP
7fc0
ffe0
c060
c060
df60
d060
d060
df60
c060
ffe0
7fc0
ENDCHAR
STARTCHAR ordfeminine
ENCODING 170
SWIDTH 395 0
DWIDTH 7 0
BBX 5 7 1 5
ATTRIBUTES 1b58
BITMAP
f8
08
08
f8
88
88
88
ENDCHAR
STARTCHAR guillemotleft
ENCODING 171
SWIDTH 564 0
DWIDTH 10 0
BBX 8 5 1 2
ATTRIBUTES 2710
BITMAP
11
73
ee
77
31
ENDCHAR
STARTCHAR notsign
ENCODING 172
SWIDTH 508 0
DWIDTH 9 0
BBX 7 4 1 3
ATTRIBUTES 2328
BITMAP
fe
fe
06
06
ENDCHAR
STARTCHAR hyphen
ENCODING 173
SWIDTH 564 0
DWIDTH 10 0
BBX 7 2 2 5
ATTRIBUTES 2710
BITMAP
fe
fe
ENDCHAR
STARTCHAR registered
ENCODING 174
SWIDTH 734 0
DWIDTH 13 0
BBX 11 11 1 1
ATTRIBUTES 32c8
BITMAP
7fc0
ffe0
c060
c060
df60
d060
d060
d060
c060
ffe0
7fc0
ENDCHAR
STARTCHAR macron
ENCODING 175
SWIDTH 508 0
DWIDTH 9 0
BBX 5 2 2 10
ATTRIBUTES 2328
BITMAP
f8
f8
ENDCHAR
STARTCHAR degree
ENCODING 176
SWIDTH 395 0
DWIDTH 7 0
BBX 5 6 1 6
ATTRIBUTES 1b58
BITMAP
f8
88
88
88
88
f8
ENDCHAR
STARTCHAR plusminus
ENCODING 177
SWIDTH 564 0
DWIDTH 10 0
BBX 7 9 2 0
ATTRIBUTES 2710
BITMAP
30
30
fe
fe
30
30
30
fe
fe
ENDCHAR
STARTCHAR twosuperior
ENCODING 178
SWIDTH 395 0
DWIDTH 7 0
BBX 5 7 1 5
ATTRIBUTES 1b58
BITMAP
f8
08
08
f8
80
80
f8
ENDCHAR
STARTCHAR threesuperior
ENCODING 179
SWIDTH 338 0
DWIDTH 6 0
BBX 5 6 1 6
ATTRIBUTES 1770
BITMAP
f8
08
f8
08
08
f8
ENDCHAR
STARTCHAR acute
ENCODING 180
SWIDTH 282 0
DWIDTH 5 0
BBX 2 4 2 8
ATTRIBUTES 1388
BITMAP
c0
c0
80
00
ENDCHAR
STARTCHAR mu
ENCODING 181
SWIDTH 790 0
DWIDTH 14 0
BBX 12 10 2 -3
ATTRIBUTES 36b0
BITMAP
c0c0
c0c0
c0c0
c0c0
c0c0
fff0
fff0
c000
c000
c000
ENDCHAR
STARTCHAR paragraph
ENCODING 182
SWIDTH 734 0
DWIDTH 13 0
BBX 10 12 2 0
ATTRIBUTES 32c8
BITMAP
ff80
ffc0
fcc0
fcc0
fcc0
fcc0
7cc0
0cc0
0cc0
0cc0
0cc0
0cc0
ENDCHAR
STARTCHAR periodcentered
ENCODING 183
SWIDTH 225 0
DWIDTH 4 0
BBX 2 2 1 4
ATTRIBUTES 0fa0
BITMAP
c0
c0
ENDCHAR
STARTCHAR cedilla
ENCODING 184
SWIDTH 225 0
DWIDTH 4 0
BBX 2 3 1 -3
ATTRIBUTES 0fa0
BITMAP
80
80
c0
ENDCHAR
STARTCHAR onesuperior
ENCODING 185
SWIDTH 169 0
DWIDTH 3 0
BBX 1 7 1 5
ATTRIBUTES 0bb8
BITMAP
80
80
80
80
80
80
80
ENDCHAR
STARTCHAR masculine
ENCODING 186
SWIDTH 395 0
DWIDTH 7 0
BBX 5 6 1 6
ATTRIBUTES 1b58
BITMAP
f8
88
88
88
88
f8
ENDCHAR
STARTCHAR guillemotright
ENCODING 187
SWIDTH 564 0
DWIDTH 10 0
BBX 8 5 1 2
ATTRIBUTES 2710
BITMAP
44
66
33
66
44
ENDCHAR
STARTCHAR onequarter
ENCODING 188
SWIDTH 847 0
DWIDTH 15 0
BBX 13 12 1 0
ATTRIBUTES 3a98
BITMAP
40c0
4180
4300
4300
4600
4508
4d08
1908
11f8
3008
6008
4008
ENDCHAR
STARTCHAR onehalf
ENCODING 189
SWIDTH 847 0
DWIDTH 15 0
BBX 13 12 1 0
ATTRIBUTES 3a98
BITMAP
40c0
4180
4300
4300
4600
4df8
4c08
1808
11f8
3100
6100
41f8
ENDCHAR
STARTCHAR threequarters
ENCODING 190
SWIDTH 1016 0
DWIDTH 18 0
BBX 15 12 2 0
ATTRIBUTES 4650
BITMAP
f830
0860
08c0
f8c0
0980
0b42
fb42
0642
0c7e
0c02
1802
3002
ENDCHAR
STARTCHAR questiondown
ENCODING 191
SWIDTH 677 0
DWIDTH 12 0
BBX 10 12 1 0
ATTRIBUTES 2ee0
BITMAP
00c0
00c0
0000
0000
00c0
7fc0
ff80
c000
c000
c000
ffc0
7fc0
ENDCHAR
STARTCHAR Agrave
ENCODING 192
SWIDTH 734 0
DWIDTH 13 0
BBX 10 16 2 0
ATTRIBUTES 32c8
BITMAP
0c00
0c00
0400
0000
7f80
ffc0
00c0
00c0
00c0
ffc0
ffc0
c0c0
c0c0
c0c0
c0c0
c0c0
ENDCHAR
STARTCHAR Aacute
ENCODING 193
SWIDTH 734 0
DWIDTH 13 0
BBX 10 16 2 0
ATTRIBUTES 32c8
BITMAP
0c00
0c00
0000
0000
7f80
ffc0
00c0
00c0
00c0
ffc0
ffc0
c0c0
c0c0
c0c0
c0c0
c0c0
ENDCHAR
STARTCHAR Acircumflex
ENCODING 194
SWIDTH 734 0
DWIDTH 13 0
BBX 10 17 2 0
ATTRIBUTES 32c8
BITMAP
0000
0c00
1e00
1200
0000
7f80
ffc0
00c0
00c0
00c0
ffc0
ffc0
c0c0
c0c0
c0c0
c0c0
c0c0
ENDCHAR
STARTCHAR Atilde
ENCODING 195
SWIDTH 734 0
DWIDTH 13 0
BBX 10 17 2 0
ATTRIBUTES 32c8
BITMAP
0300
3f00
3c00
2000
0000
7f80
ffc0
00c0
00c0
00c0
ffc0
ffc0
c0c0
c0c0
c0c0
c0c0
c0c0
ENDCHAR
STARTCHAR Adiaeresis
ENCODING 196
SWIDTH 734 0
DWIDTH 13 0
BBX 10 15 2 0
ATTRIBUTES 32c8
BITMAP
3600
3600
0000
7f80
ffc0
00c0
00c0
00c0
ffc0
ffc0
c0c0
c0c0
c0c0
c0c0
c0c0
ENDCHAR
STARTCHAR Aring
ENCODING 197
SWIDTH 734 0
DWIDTH 13 0
BBX 10 16 2 0
ATTRIBUTES 32c8
BITMAP
1e00
1200
1e00
0000
7f80
ffc0
00c0
00c0
00c0
ffc0
ffc0
c0c0
c0c0
c0c0
c0c0
c0c0
ENDCHAR
STARTCHAR AE
ENCODING 198
SWIDTH 1185 0
DWIDTH 21 0
BBX 18 12 2 0
ATTRIBUTES 5208
BITMAP
7fffc0
ffffc0
00c000
00c000
00c000
ffffc0
ffffc0
c0c000
c0c000
c0c000
c0ffc0
c0ffc0
ENDCHAR
STARTCHAR Ccedilla
ENCODING 199
SWIDTH 677 0
DWIDTH 12 0
BBX 10 15 1 -3
ATTRIBUTES 2ee0
BITMAP
7fc0
ffc0
c000
c000
c000
c000
c000
c000
c000
c000
ffc0
7fc0
0400
0400
0600
ENDCHAR
STARTCHAR Egrave
ENCODING 200
SWIDTH 734 0
DWIDTH 13 0
BBX 10 16 2 0
ATTRIBUTES 32c8
BITMAP
0c00
0c00
0400
0000
7fc0
ffc0
c000
c000
c000
ffc0
ffc0
c000
c000
c000
ffc0
7fc0
ENDCHAR
STARTCHAR Eacute
ENCODING 201
SWIDTH 734 0
DWIDTH 13 0
BBX 10 16 2 0
ATTRIBUTES 32c8
BITMAP
0600
0600
0000
0000
7fc0
ffc0
c000
c000
c000
ffc0
ffc0
c000
c000
c000
ffc0
7fc0
ENDCHAR
STARTCHAR Ecircumflex
ENCODING 202
SWIDTH 734 0
DWIDTH 13 0
BBX 10 17 2 0
ATTRIBUTES 32c8
BITMAP
0000
0c00
1e00
1200
0000
7fc0
ffc0
c000
c000
c000
ffc0
ffc0
c000
c000
c000
ffc0
7fc0
ENDCHAR
STARTCHAR Ediaeresis
ENCODING 203
SWIDTH 734 0
DWIDTH 13 0
BBX 10 15 2 0
ATTRIBUTES 32c8
BITMAP
3600
3600
0000
7fc0
ffc0
c000
c000
c000
ffc0
ffc0
c000
c000
c000
ffc0
7fc0
ENDCHAR
STARTCHAR Igrave
ENCODING 204
SWIDTH 282 0
DWIDTH 5 0
BBX 2 16 2 0
ATTRIBUTES 1388
BITMAP
c0
c0
40
00
c0
c0
c0
c0
c0
c0
c0
c0
c0
c0
c0
c0
ENDCHAR
STARTCHAR Iacute
ENCODING 205
SWIDTH 282 0
DWIDTH 5 0
BBX 2 16 2 0
ATTRIBUTES 1388
BITMAP
c0
c0
80
00
c0
c0
c0
c0
c0
c0
c0
c0
c0
c0
c0
c0
ENDCHAR
STARTCHAR Icircumflex
ENCODING 206
SWIDTH 282 0
DWIDTH 5 0
BBX 4 17 1 0
ATTRIBUTES 1388
BITMAP
00
60
f0
90
00
60
60
60
60
60
60
60
60
60
60
60
60
ENDCHAR
STARTCHAR Idiaeresis
ENCODING 207
SWIDTH 225 0
DWIDTH 4 0
BBX 5 15 0 0
ATTRIBUTES 0fa0
BITMAP
d8
d8
00
60
60
60
60
60
60
60
60
60
60
60
60
ENDCHAR
STARTCHAR ETH
ENCODING 208
SWIDTH 790 0
DWIDTH 14 0
BBX 12 12 1 0
ATTRIBUTES 36b0
BITMAP
3fe0
3ff0
3030
3030
3030
fe30
fe30
3030
3030
3030
37f0
37e0
ENDCHAR
STARTCHAR Ntilde
ENCODING 209
SWIDTH 677 0
DWIDTH 12 0
BBX 10 17 1 0
ATTRIBUTES 2ee0
BITMAP
0300
1f00
3c00
3000
0000
7f80
ffc0
c0c0
c0c0
c0c0
c0c0
c0c0
c0c0
c0c0
c0c0
c0c0
c0c0
ENDCHAR
STARTCHAR Ograve
ENCODING 210
SWIDTH 677 0
DWIDTH 12 0
BBX 10 16 1 0
ATTRIBUTES 2ee0
BITMAP
0c00
0c00
0400
0000
7f80
ffc0
c0c0
c0c0
c0c0
c0c0
c0c0
c0c0
c0c0
c0c0
ffc0
7f80
ENDCHAR
STARTCHAR Oacute
ENCODING 211
SWIDTH 677 0
DWIDTH 12 0
BBX 10 16 1 0
ATTRIBUTES 2ee0
BITMAP
0c00
0c00
0800
0000
7f80
ffc0
c0c0
c0c0
c0c0
c0c0
c0c0
c0c0
c0c0
c0c0
ffc0
7f80
ENDCHAR
STARTCHAR Ocircumflex
ENCODING 212
SWIDTH 677 0
DWIDTH 12 0
BBX 10 17 1 0
ATTRIBUTES 2ee0
BITMAP
0000
0c00
1e00
1200
0000
7f80
ffc0
c0c0
c0c0
c0c0
c0c0
c0c0
c0c0
c0c0
c0c0
ffc0
7f80
ENDCHAR
STARTCHAR Otilde
ENCODING 213
SWIDTH 677 0
DWIDTH 12 0
BBX 10 17 1 0
ATTRIBUTES 2ee0
BITMAP
0300
1f00
3c00
3000
0000
7f80
ffc0
c0c0
c0c0
c0c0
c0c0
c0c0
c0c0
c0c0
c0c0
ffc0
7f80
ENDCHAR
STARTCHAR Odiaeresis
ENCODING 214
SWIDTH 677 0
DWIDTH 12 0
BBX 10 15 1 0
ATTRIBUTES 2ee0
BITMAP
1e00
1e00
0000
7f80
ffc0
c0c0
c0c0
c0c0
c0c0
c0c0
c0c0
c0c0
c0c0
ffc0
7f80
ENDCHAR
STARTCHAR multiply
ENCODING 215
SWIDTH 677 0
DWIDTH 12 0
BBX 10 7 1 0
ATTRIBUTES 2ee0
BITMAP
c0c0
e1c0
6780
1e00
7980
e1c0
c0c0
ENDCHAR
STARTCHAR Ooblique
ENCODING 216
SWIDTH 677 0
DWIDTH 12 0
BBX 10 12 1 0
ATTRIBUTES 2ee0
BITMAP
7f80
ffc0
c3c0
c2c0
c6c0
ccc0
c8c0
d8c0
f0c0
e0c0
ffc0
ff80
ENDCHAR
STARTCHAR Ugrave
ENCODING 217
SWIDTH 677 0
DWIDTH 12 0
BBX 10 16 1 0
ATTRIBUTES 2ee0
BITMAP
0c00
0c00
0400
0000
c0c0
c0c0
c0c0
c0c0
c0c0
c0c0
c0c0
c0c0
c0c0
c0c0
ffc0
7f80
ENDCHAR
STARTCHAR Uacute
ENCODING 218
SWIDTH 677 0
DWIDTH 12 0
BBX 10 16 1 0
ATTRIBUTES 2ee0
BITMAP
0c00
0c00
0800
0000
c0c0
c0c0
c0c0
c0c0
c0c0
c0c0
c0c0
c0c0
c0c0
c0c0
ffc0
7f80
ENDCHAR
STARTCHAR Ucircumflex
ENCODING 219
SWIDTH 677 0
DWIDTH 12 0
BBX 10 17 1 0
ATTRIBUTES 2ee0
BITMAP
0000
0c00
1e00
1200
0000
c0c0
c0c0
c0c0
c0c0
c0c0
c0c0
c0c0
c0c0
c0c0
c0c0
ffc0
7f80
ENDCHAR
STARTCHAR Udiaeresis
ENCODING 220
SWIDTH 677 0
DWIDTH 12 0
BBX 10 15 1 0
ATTRIBUTES 2ee0
BITMAP
3600
3600
0000
c0c0
c0c0
c0c0
c0c0
c0c0
c0c0
c0c0
c0c0
c0c0
c0c0
ffc0
7f80
ENDCHAR
STARTCHAR Yacute
ENCODING 221
SWIDTH 734 0
DWIDTH 13 0
BBX 10 16 2 0
ATTRIBUTES 32c8
BITMAP
0600
0600
0000
0000
c0c0
c0c0
c0c0
c0c0
c0c0
ffc0
7fc0
00c0
00c0
00c0
ffc0
ff80
ENDCHAR
STARTCHAR THORN
ENCODING 222
SWIDTH 734 0
DWIDTH 13 0
BBX 10 12 2 0
ATTRIBUTES 32c8
BITMAP
c000
c000
c000
ff80
ffc0
00c0
00c0
00c0
ffc0
ff80
c000
c000
ENDCHAR
STARTCHAR ssharp
ENCODING 223
SWIDTH 734 0
DWIDTH 13 0
BBX 10 13 2 -1
ATTRIBUTES 32c8
BITMAP
ff80
ffc0
00c0
00c0
00c0
ffc0
ffc0
c0c0
c0c0
c0c0
cfc0
cf80
c000
ENDCHAR
STARTCHAR agrave
ENCODING 224
SWIDTH 734 0
DWIDTH 13 0
BBX 10 12 2 0
ATTRIBUTES 32c8
BITMAP
0c00
0c00
0400
0000
0000
7fc0
ffc0
c0c0
c0c0
c0c0
fcc0
7cc0
ENDCHAR
STARTCHAR aacute
ENCODING 225
SWIDTH 734 0
DWIDTH 13 0
BBX 10 12 2 0
ATTRIBUTES 32c8
BITMAP
0c00
0c00
0800
0000
0000
7fc0
ffc0
c0c0
c0c0
c0c0
fcc0
7cc0
ENDCHAR
STARTCHAR acircumflex
ENCODING 226
SWIDTH 734 0
DWIDTH 13 0
BBX 10 12 2 0
ATTRIBUTES 32c8
BITMAP
0c00
0e00
1a00
0200
0000
7fc0
ffc0
c0c0
c0c0
c0c0
fcc0
7cc0
ENDCHAR
STARTCHAR atilde
ENCODING 227
SWIDTH 734 0
DWIDTH 13 0
BBX 10 12 2 0
ATTRIBUTES 32c8
BITMAP
0300
1f00
3e00
3000
0000
7fc0
ffc0
c0c0
c0c0
c0c0
fcc0
7cc0
ENDCHAR
STARTCHAR adiaeresis
ENCODING 228
SWIDTH 734 0
DWIDTH 13 0
BBX 10 11 2 0
ATTRIBUTES 32c8
BITMAP
1e00
1e00
0000
0000
7fc0
ffc0
c0c0
c0c0
c0c0
fcc0
7cc0
ENDCHAR
STARTCHAR aring
ENCODING 229
SWIDTH 734 0
DWIDTH 13 0
BBX 10 12 2 0
ATTRIBUTES 32c8
BITMAP
0e00
0a00
0e00
0000
0000
7fc0
ffc0
c0c0
c0c0
c0c0
fcc0
7cc0
ENDCHAR
STARTCHAR ae
ENCODING 230
SWIDTH 1185 0
DWIDTH 21 0
BBX 18 7 2 0
ATTRIBUTES 5208
BITMAP
7fff80
ffffc0
c0c380
c0ce00
c0c000
fcffc0
7cffc0
ENDCHAR
STARTCHAR ccedilla
ENCODING 231
SWIDTH 734 0
DWIDTH 13 0
BBX 10 10 2 -3
ATTRIBUTES 32c8
BITMAP
7fc0
ffc0
c000
c000
c000
ffc0
7fc0
0400
0400
0600
ENDCHAR
STARTCHAR egrave
ENCODING 232
SWIDTH 734 0
DWIDTH 13 0
BBX 10 12 2 0
ATTRIBUTES 32c8
BITMAP
0c00
0c00
0400
0000
0000
7f80
ffc0
c380
c600
c000
ffc0
7fc0
ENDCHAR
STARTCHAR eacute
ENCODING 233
SWIDTH 734 0
DWIDTH 13 0
BBX 10 12 2 0
ATTRIBUTES 32c8
BITMAP
0c00
0c00
0800
0000
0000
7f80
ffc0
c380
ce00
c000
ffc0
7fc0
ENDCHAR
STARTCHAR ecircumflex
ENCODING 234
SWIDTH 734 0
DWIDTH 13 0
BBX 10 12 2 0
ATTRIBUTES 32c8
BITMAP
0c00
1e00
1e00
0200
0000
7f80
ffc0
c380
ce00
c000
ffc0
7fc0
ENDCHAR
STARTCHAR ediaeresis
ENCODING 235
SWIDTH 734 0
DWIDTH 13 0
BBX 10 11 2 0
ATTRIBUTES 32c8
BITMAP
3600
3600
0000
0000
7f80
ffc0
c380
ce00
c000
ffc0
7fc0
ENDCHAR
STARTCHAR igrave
ENCODING 236
SWIDTH 282 0
DWIDTH 5 0
BBX 2 12 2 0
ATTRIBUTES 1388
BITMAP
c0
c0
40
00
00
c0
c0
c0
c0
c0
c0
c0
ENDCHAR
STARTCHAR iacute
ENCODING 237
SWIDTH 282 0
DWIDTH 5 0
BBX 2 12 2 0
ATTRIBUTES 1388
BITMAP
c0
c0
80
00
00
c0
c0
c0
c0
c0
c0
c0
ENDCHAR
STARTCHAR icircumflex
ENCODING 238
SWIDTH 282 0
DWIDTH 5 0
BBX 5 12 0 0
ATTRIBUTES 1388
BITMAP
30
70
58
40
00
30
30
30
30
30
30
30
ENDCHAR
STARTCHAR idiaeresis
ENCODING 239
SWIDTH 225 0
DWIDTH 4 0
BBX 4 12 0 0
ATTRIBUTES 0fa0
BITMAP
f0
f0
00
00
00
60
60
60
60
60
60
60
ENDCHAR
STARTCHAR eth
ENCODING 240
SWIDTH 677 0
DWIDTH 12 0
BBX 10 12 1 0
ATTRIBUTES 2ee0
BITMAP
ff80
ffc0
18c0
18c0
00c0
7fc0
ffc0
c0c0
c0c0
c0c0
ffc0
7f80
ENDCHAR
STARTCHAR ntilde
ENCODING 241
SWIDTH 734 0
DWIDTH 13 0
BBX 10 12 2 0
ATTRIBUTES 32c8
BITMAP
0300
1f00
3e00
3000
0000
7f80
ffc0
c0c0
c0c0
c0c0
c0c0
c0c0
ENDCHAR
STARTCHAR ograve
ENCODING 242
SWIDTH 734 0
DWIDTH 13 0
BBX 10 12 2 0
ATTRIBUTES 32c8
BITMAP
0c00
0c00
0400
0000
0000
7f80
ffc0
c0c0
c0c0
c0c0
ffc0
7f80
ENDCHAR
STARTCHAR oacute
ENCODING 243
SWIDTH 734 0
DWIDTH 13 0
BBX 10 12 2 0
ATTRIBUTES 32c8
BITMAP
0c00
0c00
0800
0000
0000
7f80
ffc0
c0c0
c0c0
c0c0
ffc0
7f80
ENDCHAR
STARTCHAR ocircumflex
ENCODING 244
SWIDTH 734 0
DWIDTH 13 0
BBX 10 12 2 0
ATTRIBUTES 32c8
BITMAP
0c00
1e00
1e00
1000
0000
7f80
ffc0
c0c0
c0c0
c0c0
ffc0
7f80
ENDCHAR
STARTCHAR otilde
ENCODING 245
SWIDTH 734 0
DWIDTH 13 0
BBX 10 12 2 0
ATTRIBUTES 32c8
BITMAP
0300
1f00
3e00
3000
0000
7f80
ffc0
c0c0
c0c0
c0c0
ffc0
7f80
ENDCHAR
STARTCHAR odiaeresis
ENCODING 246
SWIDTH 734 0
DWIDTH 13 0
BBX 10 11 2 0
ATTRIBUTES 32c8
BITMAP
3600
3600
0000
0000
7f80
ffc0
c0c0
c0c0
c0c0
ffc0
7f80
ENDCHAR
STARTCHAR division
ENCODING 247
SWIDTH 564 0
DWIDTH 10 0
BBX 7 9 2 2
ATTRIBUTES 2710
BITMAP
30
30
00
00
fe
fe
00
30
30
ENDCHAR
STARTCHAR oslash
ENCODING 248
SWIDTH 734 0
DWIDTH 13 0
BBX 10 7 2 0
ATTRIBUTES 32c8
BITMAP
7f80
ffc0
c4c0
ccc0
d8c0
ffc0
7f80
ENDCHAR
STARTCHAR ugrave
ENCODING 249
SWIDTH 734 0
DWIDTH 13 0
BBX 10 12 2 0
ATTRIBUTES 32c8
BITMAP
0c00
0c00
0400
0000
0000
c0c0
c0c0
c0c0
c0c0
c0c0
ffc0
7f80
ENDCHAR
STARTCHAR uacute
ENCODING 250
SWIDTH 734 0
DWIDTH 13 0
BBX 10 12 2 0
ATTRIBUTES 32c8
BITMAP
0c00
0c00
0800
0000
0000
c0c0
c0c0
c0c0
c0c0
c0c0
ffc0
7f80
ENDCHAR
STARTCHAR ucircumflex
ENCODING 251
SWIDTH 734 0
DWIDTH 13 0
BBX 10 12 2 0
ATTRIBUTES 32c8
BITMAP
0c00
1e00
1e00
1000
0000
c0c0
c0c0
c0c0
c0c0
c0c0
ffc0
7f80
ENDCHAR
STARTCHAR udiaeresis
ENCODING 252
SWIDTH 734 0
DWIDTH 13 0
BBX 10 11 2 0
ATTRIBUTES 32c8
BITMAP
3600
3600
0000
0000
c0c0
c0c0
c0c0
c0c0
c0c0
ffc0
7f80
ENDCHAR
STARTCHAR yacute
ENCODING 253
SWIDTH 734 0
DWIDTH 13 0
BBX 10 17 2 -5
ATTRIBUTES 32c8
BITMAP
0c00
0c00
0800
0000
0000
c0c0
c0c0
c0c0
c0c0
c0c0
ffc0
7fc0
00c0
00c0
00c0
00c0
00c0
ENDCHAR
STARTCHAR thorn
ENCODING 254
SWIDTH 734 0
DWIDTH 13 0
BBX 10 12 2 0
ATTRIBUTES 32c8
BITMAP
c000
c000
c000
ff80
ffc0
00c0
00c0
00c0
ffc0
ff80
c000
c000
ENDCHAR
STARTCHAR ydiaeresis
ENCODING 255
SWIDTH 734 0
DWIDTH 13 0
BBX 10 16 2 -5
ATTRIBUTES 32c8
BITMAP
1e00
1e00
0000
0000
c0c0
c0c0
c0c0
c0c0
c0c0
ffc0
7fc0
00c0
00c0
00c0
00c0
00c0
ENDCHAR
ENDFONT
